HIERARCHY
ROOT Root
{
  OFFSET 0.0 0.0 0.0
  CHANNELS 6 Xposition Yposition Zposition Zrotation Yrotation Xrotation
  JOINT Hips
  {
    OFFSET 0.0 100.0 0.0
    CHANNELS 6 Xposition Yposition Zposition Zrotation Yrotation Xrotation
    JOINT Spine1
    {
      OFFSET -0.013727 5.003763 -0.053727
      CHANNELS 3 Zrotation Yrotation Xrotation
      JOINT Spine2
      {
        OFFSET -0.0 7.125301 -0.029825
        CHANNELS 3 Zrotation Yrotation Xrotation
        JOINT Chest
        {
          OFFSET -1e-06 7.550063 -0.815971
          CHANNELS 3 Zrotation Yrotation Xrotation
          JOINT Neck1
          {
            OFFSET -0.181677 26.311295 -0.553348
            CHANNELS 3 Zrotation Yrotation Xrotation
            JOINT Neck2
            {
              OFFSET -3e-06 7.709397 2.302585
              CHANNELS 3 Zrotation Yrotation Xrotation
              JOINT Head
              {
                OFFSET -5e-06 6.128916 1.953709
                CHANNELS 3 Zrotation Yrotation Xrotation
                JOINT HeadEnd
                {
                  OFFSET 0.003598 16.065403 -1.835379
                  CHANNELS 3 Zrotation Yrotation Xrotation
                }
                JOINT Jaw
                {
                  OFFSET 0.002637 0.475592 3.094941
                  CHANNELS 3 Zrotation Yrotation Xrotation
                }
                JOINT LeftEye
                {
                  OFFSET 3.206381 5.380205 7.586883
                  CHANNELS 3 Zrotation Yrotation Xrotation
                }
                JOINT RightEye
                {
                  OFFSET -3.22244 5.361869 7.558234
                  CHANNELS 3 Zrotation Yrotation Xrotation
                }
              }
            }
          }
          JOINT LeftShoulder
          {
            OFFSET 1.621652 23.237164 5.113413
            CHANNELS 3 Zrotation Yrotation Xrotation
            JOINT LeftArm
            {
              OFFSET 14.919846 2e-06 -5.502326
              CHANNELS 3 Zrotation Yrotation Xrotation
              JOINT LeftForeArm
              {
                OFFSET 28.739307 0.0 -0.002588
                CHANNELS 3 Zrotation Yrotation Xrotation
                JOINT LeftHand
                {
                  OFFSET 27.093981 -1e-06 0.002609
                  CHANNELS 3 Zrotation Yrotation Xrotation
                  JOINT LeftHandThumb1
                  {
                    OFFSET 2.276482 -1.392045 3.191413
                    CHANNELS 3 Zrotation Yrotation Xrotation
                    JOINT LeftHandThumb2
                    {
                      OFFSET 4.012836 -1.828127 1.641654
                      CHANNELS 3 Zrotation Yrotation Xrotation
                      JOINT LeftHandThumb3
                      {
                        OFFSET 2.798515 0.0 -3e-06
                        CHANNELS 3 Zrotation Yrotation Xrotation
                        JOINT LeftHandThumbEnd
                        {
                          OFFSET 3.180793 -4e-06 4e-06
                          CHANNELS 3 Zrotation Yrotation Xrotation
                        }
                      }
                    }
                  }
                  JOINT LeftHandIndex1
                  {
                    OFFSET 3.247555 -0.531998 2.296169
                    CHANNELS 3 Zrotation Yrotation Xrotation
                    JOINT LeftHandIndex2
                    {
                      OFFSET 6.364578 0.01206 0.1786
                      CHANNELS 3 Zrotation Yrotation Xrotation
                      JOINT LeftHandIndex3
                      {
                        OFFSET 3.662364 0.0 0.0
                        CHANNELS 3 Zrotation Yrotation Xrotation
                        JOINT LeftHandIndex4
                        {
                          OFFSET 2.329242 4e-06 4e-06
                          CHANNELS 3 Zrotation Yrotation Xrotation
                          JOINT LeftHandIndexEnd
                          {
                            OFFSET 2.759615 -0.180537 -0.113024
                            CHANNELS 3 Zrotation Yrotation Xrotation
                          }
                        }
                      }
                    }
                  }
                  JOINT LeftHandMiddle1
                  {
                    OFFSET 3.163495 0.240981 1.000332
                    CHANNELS 3 Zrotation Yrotation Xrotation
                    JOINT LeftHandMiddle2
                    {
                      OFFSET 6.19078 -0.259278 -1.002548
                      CHANNELS 3 Zrotation Yrotation Xrotation
                      JOINT LeftHandMiddle3
                      {
                        OFFSET 4.35652 -4e-06 -1e-06
                        CHANNELS 3 Zrotation Yrotation Xrotation
                        JOINT LeftHandMiddle4
                        {
                          OFFSET 2.996877 -8e-06 0.0
                          CHANNELS 3 Zrotation Yrotation Xrotation
                          JOINT LeftHandMiddleEnd
                          {
                            OFFSET 2.304287 -0.294569 -0.031741
                            CHANNELS 3 Zrotation Yrotation Xrotation
                          }
                        }
                      }
                    }
                  }
                  JOINT LeftHandRing1
                  {
                    OFFSET 2.882643 -0.053652 -0.322543
                    CHANNELS 3 Zrotation Yrotation Xrotation
                    JOINT LeftHandRing2
                    {
                      OFFSET 5.854541 -0.486202 -1.373841
                      CHANNELS 3 Zrotation Yrotation Xrotation
                      JOINT LeftHandRing3
                      {
                        OFFSET 4.350578 0.0 3e-06
                        CHANNELS 3 Zrotation Yrotation Xrotation
                        JOINT LeftHandRing4
                        {
                          OFFSET 2.651321 7e-06 2e-06
                          CHANNELS 3 Zrotation Yrotation Xrotation
                          JOINT LeftHandRingEnd
                          {
                            OFFSET 1.936105 0.077687 -7.1e-05
                            CHANNELS 3 Zrotation Yrotation Xrotation
                          }
                        }
                      }
                    }
                  }
                  JOINT LeftHandPinky1
                  {
                    OFFSET 2.8655 -0.310005 -1.600378
                    CHANNELS 3 Zrotation Yrotation Xrotation
                    JOINT LeftHandPinky2
                    {
                      OFFSET 5.087849 -1.331141 -1.77123
                      CHANNELS 3 Zrotation Yrotation Xrotation
                      JOINT LeftHandPinky3
                      {
                        OFFSET 3.070974 4e-06 0.0
                        CHANNELS 3 Zrotation Yrotation Xrotation
                        JOINT LeftHandPinky4
                        {
                          OFFSET 1.549672 0.0 1e-06
                          CHANNELS 3 Zrotation Yrotation Xrotation
                          JOINT LeftHandPinkyEnd
                          {
                            OFFSET 1.944893 -0.157802 0.057219
                            CHANNELS 3 Zrotation Yrotation Xrotation
                          }
                        }
                      }
                    }
                  }
                }
              }
            }
          }
          JOINT RightShoulder
          {
            OFFSET -1.380118 23.180309 5.214158
            CHANNELS 3 Zrotation Yrotation Xrotation
            JOINT RightArm
            {
              OFFSET -15.037196 1.2e-05 -5.545604
              CHANNELS 3 Zrotation Yrotation Xrotation
              JOINT RightForeArm
              {
                OFFSET -28.736639 2e-06 -0.002597
                CHANNELS 3 Zrotation Yrotation Xrotation
                JOINT RightHand
                {
                  OFFSET -27.133619 -0.0 0.002613
                  CHANNELS 3 Zrotation Yrotation Xrotation
                  JOINT RightHandThumb1
                  {
                    OFFSET -2.274032 -1.383988 3.163127
                    CHANNELS 3 Zrotation Yrotation Xrotation
                    JOINT RightHandThumb2
                    {
                      OFFSET -4.011429 -1.827466 1.640914
                      CHANNELS 3 Zrotation Yrotation Xrotation
                      JOINT RightHandThumb3
                      {
                        OFFSET -2.794935 -4e-06 -3e-06
                        CHANNELS 3 Zrotation Yrotation Xrotation
                        JOINT RightHandThumbEnd
                        {
                          OFFSET -3.183852 4e-06 1e-06
                          CHANNELS 3 Zrotation Yrotation Xrotation
                        }
                      }
                    }
                  }
                  JOINT RightHandIndex1
                  {
                    OFFSET -3.253266 -0.520057 2.282866
                    CHANNELS 3 Zrotation Yrotation Xrotation
                    JOINT RightHandIndex2
                    {
                      OFFSET -6.341917 0.012471 0.178266
                      CHANNELS 3 Zrotation Yrotation Xrotation
                      JOINT RightHandIndex3
                      {
                        OFFSET -3.654871 -8e-06 -0.0
                        CHANNELS 3 Zrotation Yrotation Xrotation
                        JOINT RightHandIndex4
                        {
                          OFFSET -2.327586 0.0 1e-06
                          CHANNELS 3 Zrotation Yrotation Xrotation
                          JOINT RightHandIndexEnd
                          {
                            OFFSET -2.76179 -0.180656 -0.113078
                            CHANNELS 3 Zrotation Yrotation Xrotation
                          }
                        }
                      }
                    }
                  }
                  JOINT RightHandMiddle1
                  {
                    OFFSET -3.168106 0.246593 1.00103
                    CHANNELS 3 Zrotation Yrotation Xrotation
                    JOINT RightHandMiddle2
                    {
                      OFFSET -6.180828 -0.258836 -1.000895
                      CHANNELS 3 Zrotation Yrotation Xrotation
                      JOINT RightHandMiddle3
                      {
                        OFFSET -4.348901 0.0 -0.0
                        CHANNELS 3 Zrotation Yrotation Xrotation
                        JOINT RightHandMiddle4
                        {
                          OFFSET -3.00024 -4e-06 -2e-06
                          CHANNELS 3 Zrotation Yrotation Xrotation
                          JOINT RightHandMiddleEnd
                          {
                            OFFSET -2.30252 -0.29437 -0.031706
                            CHANNELS 3 Zrotation Yrotation Xrotation
                          }
                        }
                      }
                    }
                  }
                  JOINT RightHandRing1
                  {
                    OFFSET -2.88569 -0.067952 -0.308858
                    CHANNELS 3 Zrotation Yrotation Xrotation
                    JOINT RightHandRing2
                    {
                      OFFSET -5.854198 -0.48613 -1.373731
                      CHANNELS 3 Zrotation Yrotation Xrotation
                      JOINT RightHandRing3
                      {
                        OFFSET -4.33881 -4e-06 -0.0
                        CHANNELS 3 Zrotation Yrotation Xrotation
                        JOINT RightHandRing4
                        {
                          OFFSET -2.654903 -4e-06 4e-06
                          CHANNELS 3 Zrotation Yrotation Xrotation
                          JOINT RightHandRingEnd
                          {
                            OFFSET -1.933568 0.077527 -5.2e-05
                            CHANNELS 3 Zrotation Yrotation Xrotation
                          }
                        }
                      }
                    }
                  }
                  JOINT RightHandPinky1
                  {
                    OFFSET -2.866425 -0.342796 -1.584145
                    CHANNELS 3 Zrotation Yrotation Xrotation
                    JOINT RightHandPinky2
                    {
                      OFFSET -5.091371 -1.332055 -1.772385
                      CHANNELS 3 Zrotation Yrotation Xrotation
                      JOINT RightHandPinky3
                      {
                        OFFSET -3.062664 -4e-06 1e-06
                        CHANNELS 3 Zrotation Yrotation Xrotation
                        JOINT RightHandPinky4
                        {
                          OFFSET -1.546529 4e-06 -2e-06
                          CHANNELS 3 Zrotation Yrotation Xrotation
                          JOINT RightHandPinkyEnd
                          {
                            OFFSET -1.945119 -0.157718 0.057211
                            CHANNELS 3 Zrotation Yrotation Xrotation
                          }
                        }
                      }
                    }
                  }
                }
              }
            }
          }
        }
      }
    }
    JOINT LeftLeg
    {
      OFFSET 10.043214 -8.434526 2.595655
      CHANNELS 3 Zrotation Yrotation Xrotation
      JOINT LeftShin
      {
        OFFSET -1e-06 -43.221752 -0.802913
        CHANNELS 3 Zrotation Yrotation Xrotation
        JOINT LeftFoot
        {
          OFFSET 1e-06 -42.155094 -3.481523
          CHANNELS 3 Zrotation Yrotation Xrotation
          JOINT LeftToeBase
          {
            OFFSET 0.0 -5.059472 13.231529
            CHANNELS 3 Zrotation Yrotation Xrotation
            JOINT LeftToeEnd
            {
              OFFSET -0.009607 -1.647619 6.513017
              CHANNELS 3 Zrotation Yrotation Xrotation
            }
          }
        }
      }
    }
    JOINT RightLeg
    {
      OFFSET -10.047278 -8.29526 2.620317
      CHANNELS 3 Zrotation Yrotation Xrotation
      JOINT RightShin
      {
        OFFSET 1e-06 -43.362206 -0.805556
        CHANNELS 3 Zrotation Yrotation Xrotation
        JOINT RightFoot
        {
          OFFSET 2e-06 -42.117393 -3.478398
          CHANNELS 3 Zrotation Yrotation Xrotation
          JOINT RightToeBase
          {
            OFFSET -0.0 -5.079609 13.284196
            CHANNELS 3 Zrotation Yrotation Xrotation
            JOINT RightToeEnd
            {
              OFFSET 0.009532 -1.634378 6.460591
              CHANNELS 3 Zrotation Yrotation Xrotation
            }
          }
        }
      }
    }
  }
}
MOTION
Frames: 4
Frame Time: 0.03333333333333333
0.0 0.0 0.0 0.0 -0.0 0.0 2.496523 48.561161 4.765936 -1.635926 -0.229683 52.852505 1.784851 -0.242581 12.103143 -0.40667 -1.985913 1.890854 0.990822 -3.58287 18.389574 -0.330407 2.487398 -17.383392 0.548486 3.546847 -3.651289 -0.570544 4.229811 -14.135027 7.7e-05 -2.2e-05 5e-06 -0.071329 0.106466 -0.157896 0.64691 -3.564168 -10.691298 -0.789209 3.79122 -10.583631 23.928867 -15.075221 3.088682 -21.987017 -58.177597 -31.40658 0.00155 -18.276562 0.215601 66.373802 -8.051108 -7.92239 -5.8821 9.861281 0.702588 -10.936865 -0.360578 7.156202 0.0 8.774821 -2e-06 -15.12715 18.209934 7.357973 -1.84403 2.498503 -2.507276 -10.163592 4.678941 4.621107 -20.976009 -4e-06 4e-06 -21.226271 2.451694 -3.593997 0.0 -6e-06 1e-06 -1.36268 2.240796 -0.746324 -21.334896 0.584906 3.008323 -13.821205 -3e-06 4e-06 -23.887154 -0.249079 -0.839481 -60.057049 2.341976 -1.138796 -0.294024 1.679686 0.833255 -14.218197 0.093212 1.30058 -34.212021 -0.287565 0.967174 -20.033197 0.964536 1.212845 -0.0 -0.0 0.0 -3.440385 0.788233 0.501655 -15.928172 -3.167311 2.999707 -6.338822 -2e-06 2e-06 -18.12343 3.64818 -4.905665 -4e-06 1e-06 -2e-06 -1.587931 23.719988 7.959493 37.027912 51.736771 -6.556272 1.291904 28.728682 0.603311 -66.827133 34.608658 11.413665 2.243539 -5.255032 -3.180155 14.282874 -0.826593 6.952497 -3e-06 -12.690593 2e-06 17.859911 -18.351988 1.840969 1.665663 -1.95592 -2.878296 4.727793 -4.170584 4.993919 11.020512 3e-06 -1e-06 12.109035 -3.735711 -2.866781 0.0 -0.0 -1e-06 1.291983 -1.928547 -1.498088 14.800112 0.567468 3.865606 14.242555 -1.341734 -6.660651 19.631943 0.143927 -0.648244 50.607365 -0.690474 -6.863351 0.353029 -1.51115 -0.03194 20.222769 3.684307 2.316628 18.787251 4e-06 1e-06 10.751616 -0.479868 1.397905 -0.0 0.0 0.0 3.273804 0.305947 -0.58011 21.486786 11.830363 2.26613 8.162917 1e-06 2e-06 18.399059 -3.798983 -4.940567 3e-06 -1e-06 -1e-06 8.47464 4.686321 -21.533405 -0.126573 -3.766573 63.977707 -19.313786 -14.216884 35.592499 1.762104 -1.260982 -11.619304 -0.0 -0.0 3e-06 0.743927 -1.227164 -69.179077 0.145358 0.138092 114.549774 15.214206 8.175135 43.063576 -1.497911 0.896038 -3.402627 -0.0 0.0 -3e-06 
0.0 0.0 0.0 0.0 -0.0 0.0 2.098197 48.862873 6.333648 -1.957371 0.718832 53.508076 1.786857 -0.156017 11.735297 -0.625636 -1.781517 1.671956 0.964002 -3.570166 18.343721 -0.039294 2.386751 -17.395498 0.50351 2.885174 -3.724903 0.111445 3.603901 -14.005332 7.7e-05 -2.3e-05 5e-06 -0.102607 0.111873 -0.189602 0.58636 -3.54922 -10.640244 -0.786674 3.783205 -10.551528 23.89196 -15.095331 3.052793 -23.549252 -60.148472 -29.542566 0.513718 -15.797499 0.114211 67.602432 -10.221006 -9.155191 -5.882106 9.861286 0.70259 -10.936872 -0.360576 7.156209 2e-06 8.774828 -1e-06 -14.971581 18.28927 7.169599 -1.844031 2.498504 -2.507277 -10.163602 4.678945 4.62111 -20.976025 -4e-06 6e-06 -21.226288 2.451698 -3.593999 0.0 -6e-06 0.0 -1.362682 2.2408 -0.746323 -21.334913 0.584908 3.008326 -13.821213 -3e-06 3e-06 -23.887171 -0.249078 -0.839481 -59.816708 2.420332 -1.179921 -0.294024 1.679687 0.833257 -14.218208 0.093215 1.300582 -34.212048 -0.287563 0.967173 -20.033215 0.964537 1.212844 -0.0 -0.0 0.0 -3.440389 0.788234 0.501656 -15.928185 -3.167312 2.99971 -6.338824 -1e-06 2e-06 -18.123447 3.648184 -4.905669 -5e-06 0.0 -2e-06 -1.204579 23.512897 8.419606 31.482819 51.447338 -14.976015 0.738383 33.723614 0.162428 -64.673798 35.48901 9.615727 2.243541 -5.25504 -3.180157 14.282896 -0.826593 6.952506 -1e-06 -12.690611 -4e-06 17.446548 -18.483076 2.329998 1.665666 -1.955923 -2.878298 4.727799 -4.170588 4.993925 11.020529 4e-06 -0.0 12.109053 -3.735717 -2.866783 -0.0 -1e-06 -0.0 1.291986 -1.92855 -1.498089 14.800131 0.56747 3.86561 14.242571 -1.341738 -6.660657 19.631969 0.143925 -0.648241 50.508514 -0.561976 -6.763715 0.353029 -1.511151 -0.03194 20.222795 3.684313 2.316634 18.787275 5e-06 2e-06 10.751631 -0.479869 1.397908 0.0 0.0 -0.0 3.273807 0.305947 -0.58011 21.486828 11.830382 2.266142 8.16293 2e-06 1e-06 18.39909 -3.798986 -4.940576 3e-06 -1e-06 -1e-06 10.074228 4.377463 -22.259289 0.030538 -4.046 64.073639 -19.082888 -13.538333 35.486816 1.802141 -1.34989 -10.473688 -0.0 0.0 3e-06 1.461318 -0.907408 -67.832718 0.050761 0.027159 112.04615 14.955205 8.553153 43.213097 -1.503711 0.84155 -4.037103 -0.0 0.0 -2e-06 
0.0 0.0 0.0 0.0 -0.0 0.0 1.629685 49.27235 7.837235 -1.702275 1.34976 53.640869 1.551534 -0.104061 11.729115 -0.812229 -1.654133 1.581591 0.624214 -3.619681 18.252678 0.122606 2.392579 -17.2603 0.360916 2.057903 -3.776212 0.540942 2.69695 -13.908174 7.7e-05 -2.2e-05 5e-06 -0.079934 0.083048 -0.201306 0.598889 -3.572181 -10.618418 -0.751436 3.744127 -10.529089 23.539919 -15.508896 2.915654 -25.146561 -61.285378 -27.366735 0.880884 -14.229691 0.037036 68.565994 -12.385198 -10.247557 -5.882107 9.861281 0.70259 -10.936873 -0.360574 7.156204 -0.0 8.774822 -1e-06 -14.857924 18.208694 6.991906 -1.844032 2.498504 -2.507277 -10.163603 4.678944 4.621107 -20.976027 -2e-06 6e-06 -21.226288 2.451698 -3.593994 0.0 -6e-06 1e-06 -1.362682 2.240798 -0.746323 -21.334913 0.58491 3.008324 -13.821216 -1e-06 4e-06 -23.887173 -0.249076 -0.839483 -59.636986 2.382958 -1.035916 -0.294025 1.679687 0.833256 -14.218211 0.093216 1.300581 -34.212051 -0.28756 0.967171 -20.033215 0.964537 1.212844 -0.0 -0.0 -1e-06 -3.440387 0.788233 0.501656 -15.928187 -3.167308 2.999707 -6.338827 -0.0 1e-06 -18.123447 3.648183 -4.905667 -4e-06 1e-06 -3e-06 -1.465987 23.434095 8.375697 26.472013 50.994778 -23.846895 -0.088675 37.925163 -0.464861 -63.623051 36.104313 8.184571 2.243541 -5.255033 -3.180154 14.282883 -0.826597 6.952497 1e-06 -12.690593 3e-06 17.016558 -18.462671 2.599902 1.665667 -1.95592 -2.878296 4.727797 -4.170585 4.99392 11.02052 -0.0 -1e-06 12.109048 -3.735716 -2.866782 0.0 0.0 0.0 1.291985 -1.928548 -1.498087 14.80012 0.567463 3.865604 14.242565 -1.341738 -6.660653 19.631956 0.143921 -0.648247 50.237965 -0.58723 -6.786129 0.353029 -1.511149 -0.03194 20.222784 3.684301 2.316627 18.78727 -0.0 -3e-06 10.751625 -0.479871 1.397903 -0.0 -0.0 0.0 3.273804 0.305946 -0.58011 21.486801 11.83036 2.266129 8.162922 -0.0 -2e-06 18.399075 -3.798983 -4.940576 2e-06 -1e-06 -1e-06 10.862424 3.818274 -23.458729 0.102443 -4.175668 65.90519 -18.677858 -12.72793 34.776863 1.920105 -1.399438 -8.773396 -0.0 -0.0 2e-06 1.747057 -0.991018 -66.053719 0.080119 0.040766 109.716988 15.431137 9.666082 43.392586 -1.452573 0.815815 -5.898727 -0.0 0.0 -3e-06 
0.0 0.0 0.0 0.0 -0.0 0.0 1.136314 49.654453 9.221821 -1.254866 1.731153 53.679386 1.234088 -0.005581 11.859736 -0.9127 -1.53592 1.583284 0.109181 -3.656482 18.111586 0.144156 2.3818 -17.106064 0.144523 1.3179 -3.786872 0.94771 1.756855 -13.813421 7.7e-05 -2.2e-05 5e-06 -0.065356 0.061454 -0.208771 0.612622 -3.598465 -10.632575 -0.735897 3.72679 -10.547024 22.857405 -16.061937 2.880117 -26.112299 -61.899937 -25.627237 1.113446 -13.39063 -0.016135 69.324295 -14.196709 -10.58652 -5.882109 9.861288 0.702589 -10.936873 -0.360576 7.156209 0.0 8.774826 -1e-06 -14.641957 18.135258 6.925237 -1.844033 2.498506 -2.507279 -10.163606 4.678946 4.62111 -20.976034 -3e-06 2e-06 -21.226295 2.451697 -3.594004 0.0 -6e-06 0.0 -1.362682 2.240798 -0.746325 -21.334925 0.584911 3.008324 -13.82122 -2e-06 3e-06 -23.88718 -0.249079 -0.839483 -59.457493 2.362253 -0.957385 -0.294025 1.679689 0.833256 -14.218215 0.093215 1.300581 -34.212063 -0.287564 0.96717 -20.033222 0.964537 1.212845 0.0 -0.0 -1e-06 -3.440391 0.788234 0.501655 -15.928192 -3.167311 2.999709 -6.338829 -0.0 2e-06 -18.123453 3.648184 -4.905674 -4e-06 1e-06 -2e-06 -2.371072 23.219912 7.990725 21.350067 50.580032 -32.671482 -0.851166 41.22226 -1.168615 -63.121315 36.205906 6.685888 2.24354 -5.255036 -3.180157 14.28288 -0.826593 6.952501 -0.0 -12.6906 -2e-06 16.510546 -18.437515 2.865198 1.665665 -1.955921 -2.878297 4.727797 -4.170587 4.993921 11.020516 2e-06 -1e-06 12.109045 -3.735717 -2.866783 1e-06 0.0 0.0 1.291984 -1.928549 -1.498088 14.800117 0.567468 3.865608 14.242558 -1.341737 -6.660655 19.631952 0.143924 -0.648242 50.024719 -0.655729 -6.778366 0.353028 -1.51115 -0.031941 20.222778 3.684308 2.316632 18.78726 3e-06 2e-06 10.75162 -0.479869 1.397906 0.0 -1e-06 0.0 3.273804 0.305947 -0.58011 21.486799 11.83037 2.266137 8.162922 0.0 1e-06 18.399069 -3.798986 -4.940572 3e-06 -0.0 -1e-06 11.153256 3.41248 -26.001614 0.032463 -4.080803 70.339737 -17.699099 -12.970235 33.224804 1.979285 -1.439906 -7.424949 -0.0 -0.0 2e-06 1.700418 -1.110125 -64.295929 0.077783 -0.016079 107.562363 16.227381 10.782028 43.541256 -1.403125 0.791025 -7.520269 -0.0 -0.0 -3e-06 
